<?xml version="1.0" standalone="no"?>
<!DOCTYPE svg PUBLIC "-//W3C//DTD SVG 20010904//EN"
 "http://www.w3.org/TR/2001/REC-SVG-20010904/DTD/svg10.dtd">
<svg version="1.0" xmlns="http://www.w3.org/2000/svg"
 width="700.000000pt" height="700.000000pt" viewBox="0 0 700.000000 700.000000"
 preserveAspectRatio="xMidYMid meet">
<metadata>
Created by potrace 1.14, written by Peter Selinger 2001-2017
</metadata>
<g transform="translate(0.000000,700.000000) scale(0.100000,-0.100000)"
fill="#000000" stroke="none">
<path d="M2660 6563 c-597 -76 -1109 -345 -1499 -784 -83 -93 -87 -98 -146
-179 -98 -132 -218 -346 -275 -490 -59 -147 -130 -389 -145 -497 -3 -23 -8
-57 -11 -75 -15 -103 -19 -181 -19 -343 0 -187 8 -290 32 -415 4 -19 8 -42 9
-50 6 -50 72 -278 109 -374 44 -115 146 -325 190 -391 14 -20 25 -38 25 -40 0
-5 119 -174 135 -191 5 -7 26 -31 45 -55 75 -95 206 -223 354 -347 73 -61 388
-262 411 -262 2 0 41 -18 87 -39 137 -64 372 -140 513 -165 17 -3 44 -9 60
-12 114 -22 269 -32 445 -29 206 4 225 6 360 30 114 20 116 21 190 40 210 54
475 166 642 271 l41 26 856 -856 c471 -471 859 -856 864 -856 10 0 587 578
587 588 0 4 -378 385 -840 846 -462 461 -840 844 -840 851 0 7 10 26 23 42 13
15 44 60 69 98 185 284 310 610 362 945 35 222 26 576 -19 815 -60 309 -192
620 -383 895 -89 129 -137 186 -267 316 -245 247 -505 418 -830 546 -55 21
-116 43 -135 48 -19 5 -76 20 -125 33 -95 26 -228 50 -355 65 -111 14 -400 11
-520 -5z m470 -553 c41 -5 86 -10 100 -13 14 -2 45 -8 70 -13 51 -9 59 -11 63
-14 1 -1 11 -3 22 -5 35 -5 147 -41 220 -70 475 -187 860 -578 1038 -1055 76
-205 107 -369 112 -600 6 -325 -45 -561 -185 -845 -80 -164 -142 -256 -271
-404 -250 -286 -599 -490 -979 -570 -144 -30 -209 -36 -395 -35 -149 0 -217 6
-340 30 -253 47 -529 170 -745 333 -81 61 -241 215 -311 299 -210 254 -356
602 -398 952 -9 78 -7 379 4 440 35 200 58 289 115 433 179 459 553 834 1016
1017 266 106 581 150 864 120z"/>
</g>
</svg>
